<mxfile host="app.diagrams.net" modified="2024-04-25T16:41:23.303Z" agent="Mozilla/5.0 (Windows NT 10.0; Win64; x64) AppleWebKit/537.36 (KHTML, like Gecko) Chrome/124.0.0.0 Safari/537.36" version="23.1.1" etag="VueEwXV_ZkP1wDGPq02y" type="github">
  <diagram name="PÃ¡gina-1" id="1g2T5kYQ9bV7y2t-n084">
    <mxGraphModel>
      <root>
        <mxCell id="0" />
        <mxCell id="1" parent="0" />
      </root>
    </mxGraphModel>
  </diagram>
</mxfile>
